<svg width="96" height="96" viewBox="0 0 96 96" fill="none" xmlns="http://www.w3.org/2000/svg">
<g clip-path="url(#clip0_35_14)">
<path d="M48 96C74.5097 96 96 74.5097 96 48C96 21.4903 74.5097 0 48 0C21.4903 0 0 21.4903 0 48C0 74.5097 21.4903 96 48 96Z" fill="#9372F1"/>
</g>
<path d="M38.7917 40.9167C38.2281 40.9167 37.6876 40.6928 37.2891 40.2943C36.8906 39.8958 36.6667 39.3553 36.6667 38.7917C36.6667 38.2281 36.8906 37.6876 37.2891 37.2891C37.6876 36.8906 38.2281 36.6667 38.7917 36.6667C39.3553 36.6667 39.8958 36.8906 40.2943 37.2891C40.6928 37.6876 40.9167 38.2281 40.9167 38.7917C40.9167 39.3553 40.6928 39.8958 40.2943 40.2943C39.8958 40.6928 39.3553 40.9167 38.7917 40.9167ZM61.3309 47.405L48.5809 34.655C48.0709 34.145 47.3625 33.8334 46.5834 33.8334H36.6667C35.0942 33.8334 33.8334 35.0942 33.8334 36.6667V46.5834C33.8334 47.3625 34.145 48.0709 34.6692 48.5809L47.405 61.3309C47.9292 61.8409 48.6375 62.1667 49.4167 62.1667C50.1959 62.1667 50.9042 61.8409 51.4142 61.3309L61.3309 51.4142C61.855 50.9042 62.1667 50.1959 62.1667 49.4167C62.1667 48.6234 61.8409 47.915 61.3309 47.405Z" fill="white"/>
<defs>
<clipPath id="clip0_35_14">
<rect width="96" height="96" fill="white"/>
</clipPath>
</defs>
</svg>
