<svg width="96" height="96" viewBox="0 0 96 96" fill="none" xmlns="http://www.w3.org/2000/svg">
<g clip-path="url(#clip0_35_79)">
<path d="M48 96C74.5097 96 96 74.5097 96 48C96 21.4903 74.5097 0 48 0C21.4903 0 0 21.4903 0 48C0 74.5097 21.4903 96 48 96Z" fill="#9372F1"/>
<path d="M59.3334 38.0834C60.0848 38.0834 60.8055 38.3819 61.3368 38.9132C61.8682 39.4446 62.1667 40.1653 62.1667 40.9167V55.0834C62.1667 55.8348 61.8682 56.5555 61.3368 57.0868C60.8055 57.6182 60.0848 57.9167 59.3334 57.9167H36.6667C35.0942 57.9167 33.8334 56.6417 33.8334 55.0834V40.9167C33.8334 39.3442 35.0942 38.0834 36.6667 38.0834H59.3334ZM38.0834 53.6667H57.9167L51.5417 45.1667L46.5834 51.5417L43.0417 47.2917L38.0834 53.6667Z" fill="white"/>
</g>
<defs>
<clipPath id="clip0_35_79">
<rect width="96" height="96" fill="white"/>
</clipPath>
</defs>
</svg>
