<svg width="96" height="96" viewBox="0 0 96 96" fill="none" xmlns="http://www.w3.org/2000/svg">
<g clip-path="url(#clip0_35_87)">
<path d="M48 96C74.5097 96 96 74.5097 96 48C96 21.4903 74.5097 0 48 0C21.4903 0 0 21.4903 0 48C0 74.5097 21.4903 96 48 96Z" fill="#9372F1"/>
<path d="M48 33.8334C40.2084 33.8334 33.8334 40.2084 33.8334 48C33.8334 55.7917 40.2084 62.1667 48 62.1667C55.7917 62.1667 62.1667 55.7917 62.1667 48C62.1667 40.2084 55.7917 33.8334 48 33.8334ZM41.9084 52.9584L40.9167 51.1167L46.5834 47.8584V40.9167H48.7084V49.1334L41.9084 52.9584Z" fill="white"/>
</g>
<defs>
<clipPath id="clip0_35_87">
<rect width="96" height="96" fill="white"/>
</clipPath>
</defs>
</svg>
