<svg width="96" height="96" viewBox="0 0 96 96" fill="none" xmlns="http://www.w3.org/2000/svg">
<g clip-path="url(#clip0_35_95)">
<path d="M48 96C74.5097 96 96 74.5097 96 48C96 21.4903 74.5097 0 48 0C21.4903 0 0 21.4903 0 48C0 74.5097 21.4903 96 48 96Z" fill="#9372F1"/>
<path d="M35.25 35.25H60.75V60.75H35.25V35.25ZM41.9508 56.5567C42.5175 57.7608 43.6367 58.7525 45.5492 58.7525C47.6742 58.7525 49.1333 57.6192 49.1333 55.14V46.9517H46.725V55.0833C46.725 56.3017 46.2292 56.6133 45.45 56.6133C44.6283 56.6133 44.2883 56.0467 43.9058 55.3808L41.9508 56.5567ZM50.4225 56.3017C51.1308 57.69 52.5617 58.7525 54.8 58.7525C57.0667 58.7525 58.7667 57.5767 58.7667 55.4092C58.7667 53.4117 57.6192 52.5192 55.5792 51.6408L54.9842 51.3858C53.95 50.9467 53.5108 50.6492 53.5108 49.9408C53.5108 49.36 53.95 48.9067 54.6583 48.9067C55.3383 48.9067 55.7917 49.2042 56.2025 49.9408L58.0583 48.7083C57.2792 47.3483 56.1742 46.8242 54.6583 46.8242C52.5192 46.8242 51.145 48.1842 51.145 49.9833C51.145 51.9383 52.2925 52.8592 54.0208 53.5958L54.6158 53.8508C55.7208 54.3325 56.3725 54.63 56.3725 55.4517C56.3725 56.1317 55.735 56.6275 54.7433 56.6275C53.5675 56.6275 52.8875 56.0183 52.3775 55.1683L50.4225 56.3017Z" fill="white"/>
</g>
<defs>
<clipPath id="clip0_35_95">
<rect width="96" height="96" fill="white"/>
</clipPath>
</defs>
</svg>
