<svg width="96" height="96" viewBox="0 0 96 96" fill="none" xmlns="http://www.w3.org/2000/svg">
<g clip-path="url(#clip0_35_103)">
<path d="M48 96C74.5097 96 96 74.5097 96 48C96 21.4903 74.5097 0 48 0C21.4903 0 0 21.4903 0 48C0 74.5097 21.4903 96 48 96Z" fill="#9372F1"/>
<path d="M38.0833 35.25L37.1625 39.9817H56.415L55.7917 43.0417H36.5533L35.6183 47.7592H54.8708L53.7942 53.1567L46.0308 55.7208L39.3017 53.1567L39.7692 50.8333H35.0375L33.9183 56.5L45.0392 60.75L57.86 56.5L59.56 47.9575L59.9 46.2433L62.0817 35.25H38.0833Z" fill="white"/>
</g>
<defs>
<clipPath id="clip0_35_103">
<rect width="96" height="96" fill="white"/>
</clipPath>
</defs>
</svg>
