<svg width="96" height="96" viewBox="0 0 96 96" fill="none" xmlns="http://www.w3.org/2000/svg">
<g clip-path="url(#clip0_35_111)">
<path d="M48 96C74.5097 96 96 74.5097 96 48C96 21.4903 74.5097 0 48 0C21.4903 0 0 21.4903 0 48C0 74.5097 21.4903 96 48 96Z" fill="#9372F1"/>
<path d="M36.525 48C36.525 45.5775 38.4942 43.6083 40.9167 43.6083H46.5834V40.9166H40.9167C39.0381 40.9166 37.2364 41.6629 35.908 42.9913C34.5797 44.3197 33.8334 46.1213 33.8334 48C33.8334 49.8786 34.5797 51.6803 35.908 53.0086C37.2364 54.337 39.0381 55.0833 40.9167 55.0833H46.5834V52.3916H40.9167C38.4942 52.3916 36.525 50.4225 36.525 48ZM42.3334 49.4166H53.6667V46.5833H42.3334V49.4166ZM55.0834 40.9166H49.4167V43.6083H55.0834C57.5059 43.6083 59.475 45.5775 59.475 48C59.475 50.4225 57.5059 52.3916 55.0834 52.3916H49.4167V55.0833H55.0834C56.962 55.0833 58.7637 54.337 60.092 53.0086C61.4204 51.6803 62.1667 49.8786 62.1667 48C62.1667 46.1213 61.4204 44.3197 60.092 42.9913C58.7637 41.6629 56.962 40.9166 55.0834 40.9166Z" fill="white"/>
</g>
<defs>
<clipPath id="clip0_35_111">
<rect width="96" height="96" fill="white"/>
</clipPath>
</defs>
</svg>
