<svg width="96" height="96" viewBox="0 0 96 96" fill="none" xmlns="http://www.w3.org/2000/svg">
<g clip-path="url(#clip0_35_119)">
<path d="M48 96C74.5097 96 96 74.5097 96 48C96 21.4903 74.5097 0 48 0C21.4903 0 0 21.4903 0 48C0 74.5097 21.4903 96 48 96Z" fill="#9372F1"/>
<path d="M48 55.0833C46.4275 55.0833 45.1666 53.8083 45.1666 52.25C45.1666 50.6775 46.4275 49.4166 48 49.4166C48.7514 49.4166 49.4721 49.7151 50.0034 50.2465C50.5348 50.7778 50.8333 51.4985 50.8333 52.25C50.8333 53.0014 50.5348 53.7221 50.0034 54.2534C49.4721 54.7848 48.7514 55.0833 48 55.0833ZM56.5 59.3333V45.1666H39.5V59.3333H56.5ZM56.5 42.3333C57.2514 42.3333 57.9721 42.6318 58.5034 43.1632C59.0348 43.6945 59.3333 44.4152 59.3333 45.1666V59.3333C59.3333 60.0847 59.0348 60.8054 58.5034 61.3368C57.9721 61.8681 57.2514 62.1666 56.5 62.1666H39.5C37.9275 62.1666 36.6666 60.8916 36.6666 59.3333V45.1666C36.6666 43.5941 37.9275 42.3333 39.5 42.3333H40.9166V39.5C40.9166 37.6213 41.6629 35.8197 42.9913 34.4913C44.3197 33.1629 46.1213 32.4166 48 32.4166C48.9302 32.4166 49.8512 32.5998 50.7106 32.9558C51.57 33.3118 52.3509 33.8335 53.0086 34.4913C53.6664 35.149 54.1881 35.9299 54.5441 36.7893C54.9001 37.6487 55.0833 38.5698 55.0833 39.5V42.3333H56.5ZM48 35.25C46.8728 35.25 45.7918 35.6977 44.9948 36.4948C44.1977 37.2918 43.75 38.3728 43.75 39.5V42.3333H52.25V39.5C52.25 38.3728 51.8022 37.2918 51.0052 36.4948C50.2081 35.6977 49.1271 35.25 48 35.25Z" fill="white"/>
</g>
<defs>
<clipPath id="clip0_35_119">
<rect width="96" height="96" fill="white"/>
</clipPath>
</defs>
</svg>
