<svg width="96" height="96" viewBox="0 0 96 96" fill="none" xmlns="http://www.w3.org/2000/svg">
<g clip-path="url(#clip0_35_127)">
<path d="M48 96C74.5097 96 96 74.5097 96 48C96 21.4903 74.5097 0 48 0C21.4903 0 0 21.4903 0 48C0 74.5097 21.4903 96 48 96Z" fill="#9372F1"/>
<path d="M49.4167 49.4167H46.5834V40.9167H49.4167M49.4167 55.0834H46.5834V52.25H49.4167M48 33.8334C46.1396 33.8334 44.2975 34.1998 42.5787 34.9117C40.8599 35.6237 39.2982 36.6672 37.9827 37.9827C35.3259 40.6395 33.8334 44.2428 33.8334 48C33.8334 51.7573 35.3259 55.3606 37.9827 58.0174C39.2982 59.3329 40.8599 60.3764 42.5787 61.0883C44.2975 61.8003 46.1396 62.1667 48 62.1667C51.7573 62.1667 55.3606 60.6742 58.0174 58.0174C60.6742 55.3606 62.1667 51.7573 62.1667 48C62.1667 46.1396 61.8003 44.2975 61.0883 42.5787C60.3764 40.8599 59.3329 39.2982 58.0174 37.9827C56.7019 36.6672 55.1402 35.6237 53.4214 34.9117C51.7026 34.1998 49.8604 33.8334 48 33.8334Z" fill="white"/>
</g>
<defs>
<clipPath id="clip0_35_127">
<rect width="96" height="96" fill="white"/>
</clipPath>
</defs>
</svg>
