<svg width="96" height="96" viewBox="0 0 96 96" fill="none" xmlns="http://www.w3.org/2000/svg">
<g clip-path="url(#clip0_35_169)">
<path d="M48 96C74.5097 96 96 74.5097 96 48C96 21.4903 74.5097 0 48 0C21.4903 0 0 21.4903 0 48C0 74.5097 21.4903 96 48 96Z" fill="#9372F1"/>
<path d="M57.9167 60.75H42.3334V40.9166H57.9167M57.9167 38.0833H42.3334C41.5819 38.0833 40.8613 38.3818 40.3299 38.9132C39.7986 39.4445 39.5 40.1652 39.5 40.9166V60.75C39.5 61.5014 39.7986 62.2221 40.3299 62.7534C40.8613 63.2848 41.5819 63.5833 42.3334 63.5833H57.9167C58.6682 63.5833 59.3888 63.2848 59.9202 62.7534C60.4515 62.2221 60.75 61.5014 60.75 60.75V40.9166C60.75 40.1652 60.4515 39.4445 59.9202 38.9132C59.3888 38.3818 58.6682 38.0833 57.9167 38.0833ZM53.6667 32.4166H36.6667C35.9153 32.4166 35.1946 32.7151 34.6632 33.2465C34.1319 33.7778 33.8334 34.4985 33.8334 35.25V55.0833H36.6667V35.25H53.6667V32.4166Z" fill="white"/>
</g>
<defs>
<clipPath id="clip0_35_169">
<rect width="96" height="96" fill="white"/>
</clipPath>
</defs>
</svg>
