<svg width="96" height="96" viewBox="0 0 96 96" fill="none" xmlns="http://www.w3.org/2000/svg">
<g clip-path="url(#clip0_35_127)">
<path d="M48 96C74.5097 96 96 74.5097 96 48C96 21.4903 74.5097 0 48 0C21.4903 0 0 21.4903 0 48C0 74.5097 21.4903 96 48 96Z" fill="#9372F1"/>
<path d="M49.4166 57.9166C49.4166 58.3983 49.4733 58.8658 49.5441 59.3333H40.2083C38.0833 59.3333 36.2275 58.625 34.6975 57.1091C33.1816 55.6216 32.4166 53.7941 32.4166 51.655C32.4166 49.8133 32.9691 48.17 34.0741 46.725C35.1791 45.28 36.6666 44.3591 38.4375 43.9625C39.0325 41.795 40.2083 40.0383 41.9791 38.6925C43.75 37.3466 45.7616 36.6666 48 36.6666C50.7625 36.6666 53.1 37.63 55.0266 39.5566C56.9533 41.4833 57.9166 43.8208 57.9166 46.5833C59.5458 46.7675 60.8916 47.4758 61.9683 48.7083C62.6908 49.5158 63.1583 50.4225 63.385 51.4283C61.9116 50.1816 60.0416 49.4166 57.9166 49.4166C53.2275 49.4166 49.4166 53.2275 49.4166 57.9166ZM59.3333 53.6666H56.5V59.3333H53.6666L57.9166 63.5833L62.1666 59.3333H59.3333V53.6666Z" fill="white"/>
</g>
<defs>
<clipPath id="clip0_35_127">
<rect width="96" height="96" fill="white"/>
</clipPath>
</defs>
</svg>
