<svg width="96" height="96" viewBox="0 0 96 96" fill="none" xmlns="http://www.w3.org/2000/svg">
<g clip-path="url(#clip0_35_15)">
<path d="M48 96C74.5097 96 96 74.5097 96 48C96 21.4903 74.5097 0 48 0C21.4903 0 0 21.4903 0 48C0 74.5097 21.4903 96 48 96Z" fill="#9372F1"/>
</g>
<path d="M38.7917 43.75C39.3553 43.75 39.8958 43.5261 40.2943 43.1276C40.6928 42.729 40.9167 42.1885 40.9167 41.625C40.9167 41.0614 40.6928 40.5209 40.2943 40.1224C39.8958 39.7238 39.3553 39.5 38.7917 39.5C38.2281 39.5 37.6876 39.7238 37.2891 40.1224C36.8906 40.5209 36.6667 41.0614 36.6667 41.625C36.6667 42.1885 36.8906 42.729 37.2891 43.1276C37.6876 43.5261 38.2281 43.75 38.7917 43.75ZM55.6642 47.405C56.1742 47.915 56.5 48.6233 56.5 49.4166C56.5 50.1958 56.1884 50.9041 55.6642 51.4141L48.5809 58.4975C48.0709 59.0075 47.3625 59.3333 46.5834 59.3333C45.8042 59.3333 45.0959 59.0216 44.5717 58.4975L34.6692 48.595C34.145 48.0708 33.8334 47.3625 33.8334 46.5833V39.5C33.8334 37.9275 35.0942 36.6666 36.6667 36.6666H43.75C44.5292 36.6666 45.2375 36.9783 45.7475 37.4883L55.6642 47.405ZM50.1817 39.0891L51.5984 37.6725L61.3309 47.405C61.855 47.915 62.1667 48.6375 62.1667 49.4166C62.1667 50.1958 61.855 50.9041 61.345 51.4141L53.7234 59.0358L52.3067 57.6191L60.3959 49.4166L50.1817 39.0891Z" fill="white"/>
<defs>
<clipPath id="clip0_35_15">
<rect width="96" height="96" fill="white"/>
</clipPath>
</defs>
</svg>
