<svg width="96" height="96" viewBox="0 0 96 96" fill="none" xmlns="http://www.w3.org/2000/svg">
<g clip-path="url(#clip0_35_23)">
<path d="M48 96C74.5097 96 96 74.5097 96 48C96 21.4903 74.5097 0 48 0C21.4903 0 0 21.4903 0 48C0 74.5097 21.4903 96 48 96Z" fill="#9372F1"/>
</g>
<path d="M49.2608 35.25L52.0374 35.8167L46.7391 60.75L43.9624 60.1833L49.2608 35.25ZM58.7524 48L53.6666 42.9142V38.905L62.7616 48L53.6666 57.0808V53.0717L58.7524 48ZM33.2383 48L42.3333 38.905V42.9142L37.2474 48L42.3333 53.0717V57.0808L33.2383 48Z" fill="white"/>
<defs>
<clipPath id="clip0_35_23">
<rect width="96" height="96" fill="white"/>
</clipPath>
</defs>
</svg>
