<svg width="96" height="96" viewBox="0 0 96 96" fill="none" xmlns="http://www.w3.org/2000/svg">
<g clip-path="url(#clip0_35_31)">
<path d="M48 96C74.5097 96 96 74.5097 96 48C96 21.4903 74.5097 0 48 0C21.4903 0 0 21.4903 0 48C0 74.5097 21.4903 96 48 96Z" fill="#9372F1"/>
</g>
<path d="M62.1666 50.8334H60.75C60.75 45.3509 56.3158 40.9167 50.8333 40.9167H49.4166V39.1175C50.2666 38.6359 50.8333 37.715 50.8333 36.6667C50.8333 35.1084 49.5725 33.8334 48 33.8334C46.4275 33.8334 45.1666 35.1084 45.1666 36.6667C45.1666 37.715 45.7333 38.6359 46.5833 39.1175V40.9167H45.1666C39.6841 40.9167 35.25 45.3509 35.25 50.8334H33.8333C33.0541 50.8334 32.4166 51.4709 32.4166 52.25V56.5C32.4166 57.2792 33.0541 57.9167 33.8333 57.9167H35.25V59.3334C35.25 60.9059 36.525 62.1667 38.0833 62.1667H57.9166C59.4891 62.1667 60.75 60.9059 60.75 59.3334V57.9167H62.1666C62.9458 57.9167 63.5833 57.2792 63.5833 56.5V52.25C63.5833 51.4709 62.9458 50.8334 62.1666 50.8334ZM60.75 55.0834H57.9166V59.3334H38.0833V55.0834H35.25V53.6667H38.0833V50.8334C38.0833 46.9234 41.2566 43.75 45.1666 43.75H50.8333C54.7433 43.75 57.9166 46.9234 57.9166 50.8334V53.6667H60.75V55.0834ZM55.7916 52.9584C55.7916 54.5309 54.5308 55.7917 52.9583 55.7917C51.5841 55.7917 50.4508 54.8142 50.1816 53.525L54.375 50.5217C55.225 51.0175 55.7916 51.91 55.7916 52.9584ZM41.625 50.5217L45.8183 53.525C45.5633 54.8142 44.4158 55.7917 43.0416 55.7917C41.4833 55.7917 40.2083 54.5309 40.2083 52.9584C40.2083 51.91 40.775 51.0175 41.625 50.5217Z" fill="white"/>
<defs>
<clipPath id="clip0_35_31">
<rect width="96" height="96" fill="white"/>
</clipPath>
</defs>
</svg>
