<svg width="96" height="96" viewBox="0 0 96 96" fill="none" xmlns="http://www.w3.org/2000/svg">
<g clip-path="url(#clip0_35_39)">
<path d="M48 96C74.5097 96 96 74.5097 96 48C96 21.4903 74.5097 0 48 0C21.4903 0 0 21.4903 0 48C0 74.5097 21.4903 96 48 96Z" fill="#9372F1"/>
</g>
<path d="M45.1479 38.373V44.373H47.1479V47.373H41.1479C40.0379 47.373 39.1479 48.263 39.1479 49.373V52.373H37.1479V58.373H43.1479V52.373H41.1479V49.373H47.1479V52.373H45.1479V58.373H51.1479V52.373H49.1479V49.373H55.1479V52.373H53.1479V58.373H59.1479V52.373H57.1479V49.373C57.1479 48.263 56.2579 47.373 55.1479 47.373H49.1479V44.373H51.1479V38.373H45.1479Z" fill="white"/>
<defs>
<clipPath id="clip0_35_39">
<rect width="96" height="96" fill="white"/>
</clipPath>
</defs>
</svg>
