<svg width="96" height="96" viewBox="0 0 96 96" fill="none" xmlns="http://www.w3.org/2000/svg">
<g clip-path="url(#clip0_35_47)">
<path d="M48 96C74.5097 96 96 74.5097 96 48C96 21.4903 74.5097 0 48 0C21.4903 0 0 21.4903 0 48C0 74.5097 21.4903 96 48 96Z" fill="#9372F1"/>
</g>
<path d="M60.75 55.0833H40.9166V35.25H60.75M60.75 32.4166H40.9166C40.1652 32.4166 39.4445 32.7151 38.9132 33.2465C38.3818 33.7778 38.0833 34.4985 38.0833 35.25V55.0833C38.0833 55.8347 38.3818 56.5554 38.9132 57.0868C39.4445 57.6181 40.1652 57.9166 40.9166 57.9166H60.75C61.5014 57.9166 62.2221 57.6181 62.7534 57.0868C63.2848 56.5554 63.5833 55.8347 63.5833 55.0833V35.25C63.5833 34.4985 63.2848 33.7778 62.7534 33.2465C62.2221 32.7151 61.5014 32.4166 60.75 32.4166ZM35.25 38.0833H32.4166V60.75C32.4166 61.5014 32.7151 62.2221 33.2465 62.7534C33.7778 63.2848 34.4985 63.5833 35.25 63.5833H57.9166V60.75H35.25M53.61 45.5775L49.7141 50.5925L46.9375 47.2491L43.0416 52.25H58.625L53.61 45.5775Z" fill="white"/>
<defs>
<clipPath id="clip0_35_47">
<rect width="96" height="96" fill="white"/>
</clipPath>
</defs>
</svg>
