<svg width="96" height="96" viewBox="0 0 96 96" fill="none" xmlns="http://www.w3.org/2000/svg">
<g clip-path="url(#clip0_35_55)">
<path d="M48 96C74.5097 96 96 74.5097 96 48C96 21.4903 74.5097 0 48 0C21.4903 0 0 21.4903 0 48C0 74.5097 21.4903 96 48 96Z" fill="#9372F1"/>
</g>
<path d="M36.6667 39.5V53.6666H43.75V48C43.75 47.2485 44.0485 46.5278 44.5799 45.9965C45.1112 45.4651 45.8319 45.1666 46.5833 45.1666H53.6667C54.4181 45.1666 55.1388 45.4651 55.6701 45.9965C56.2015 46.5278 56.5 47.2485 56.5 48V53.6666H59.3333V39.5H36.6667ZM31 59.3333V56.5H36.6667C35.9152 56.5 35.1946 56.2014 34.6632 55.6701C34.1318 55.1387 33.8333 54.4181 33.8333 53.6666V39.5C33.8333 38.7485 34.1318 38.0278 34.6632 37.4965C35.1946 36.9651 35.9152 36.6666 36.6667 36.6666H59.3333C60.0848 36.6666 60.8054 36.9651 61.3368 37.4965C61.8682 38.0278 62.1667 38.7485 62.1667 39.5V53.6666C62.1667 54.4181 61.8682 55.1387 61.3368 55.6701C60.8054 56.2014 60.0848 56.5 59.3333 56.5H65V59.3333H56.5C56.5 60.9058 55.225 62.1666 53.6667 62.1666H46.5833C45.8319 62.1666 45.1112 61.8681 44.5799 61.3368C44.0485 60.8054 43.75 60.0847 43.75 59.3333H31ZM47.2917 59.3333C47.1038 59.3333 46.9236 59.4079 46.7908 59.5408C46.658 59.6736 46.5833 59.8538 46.5833 60.0416C46.5833 60.2295 46.658 60.4097 46.7908 60.5425C46.9236 60.6753 47.1038 60.75 47.2917 60.75C47.4795 60.75 47.6597 60.6753 47.7925 60.5425C47.9254 60.4097 48 60.2295 48 60.0416C48 59.8538 47.9254 59.6736 47.7925 59.5408C47.6597 59.4079 47.4795 59.3333 47.2917 59.3333ZM52.9583 59.3333C52.7705 59.3333 52.5903 59.4079 52.4575 59.5408C52.3246 59.6736 52.25 59.8538 52.25 60.0416C52.25 60.2295 52.3246 60.4097 52.4575 60.5425C52.5903 60.6753 52.7705 60.75 52.9583 60.75C53.1462 60.75 53.3264 60.6753 53.4592 60.5425C53.592 60.4097 53.6667 60.2295 53.6667 60.0416C53.6667 59.8538 53.592 59.6736 53.4592 59.5408C53.3264 59.4079 53.1462 59.3333 52.9583 59.3333ZM49.4167 59.3333V60.75H50.8333V59.3333H49.4167ZM46.5833 48V57.9166H53.6667V48H46.5833Z" fill="white"/>
<defs>
<clipPath id="clip0_35_55">
<rect width="96" height="96" fill="white"/>
</clipPath>
</defs>
</svg>
