<svg width="96" height="96" viewBox="0 0 96 96" fill="none" xmlns="http://www.w3.org/2000/svg">
<g clip-path="url(#clip0_35_63)">
<path d="M48 96C74.5097 96 96 74.5097 96 48C96 21.4903 74.5097 0 48 0C21.4903 0 0 21.4903 0 48C0 74.5097 21.4903 96 48 96Z" fill="#9372F1"/>
</g>
<path d="M39.5 33.8334H56.5V42.3334L50.8333 48L56.5 53.6667V62.1667H39.5V53.6667L45.1667 48L39.5 42.3334V33.8334ZM53.6667 54.375L48 48.7084L42.3333 54.375V59.3334H53.6667V54.375ZM48 47.2917L53.6667 41.625V36.6667H42.3333V41.625L48 47.2917ZM45.1667 39.5H50.8333V40.5625L48 43.3959L45.1667 40.5625V39.5Z" fill="white"/>
<defs>
<clipPath id="clip0_35_63">
<rect width="96" height="96" fill="white"/>
</clipPath>
</defs>
</svg>
